<svg width="198" height="198" viewBox="0 0 198 198" fill="none" xmlns="http://www.w3.org/2000/svg">
<path d="M51.5923 98.05L51.5463 93.2503L32.2324 81.4345L32.1061 68.2351C32.0877 66.3152 30.3917 64.6514 28.4718 64.6697C26.5519 64.6881 24.888 66.3841 24.9064 68.304L25.0327 81.5034L5.94841 93.6866L5.99434 98.4863L25.1361 92.3029L25.2623 105.502L20.497 109.148L20.5315 112.748L28.9081 110.268L37.3307 112.587L37.2962 108.987L32.462 105.433L32.3357 92.234L51.5923 98.05Z" fill="#97CA2B"/>
<path d="M77.5288 28.7508C91.2006 24.6218 105.783 24.5939 119.471 28.6704C133.158 32.747 145.349 40.749 154.534 51.6854C163.719 62.6217 169.494 76.0121 171.145 90.1982C172.795 104.384 170.248 118.743 163.819 131.495C157.39 144.248 147.361 154.835 134.975 161.945C122.588 169.055 108.389 172.375 94.1342 171.495C79.8796 170.614 66.1964 165.572 54.7791 156.992C43.3617 148.413 34.7118 136.672 29.9007 123.225" stroke="#97CA2B" stroke-width="4" stroke-linecap="round" stroke-linejoin="round" stroke-dasharray="32 32"/>
</svg>
