<svg width="199" height="198" viewBox="0 0 199 198" fill="none" xmlns="http://www.w3.org/2000/svg">
<path d="M150.766 91.5343L150.779 96.3343L170.012 108.282L170.048 121.482C170.054 123.402 171.738 125.077 173.658 125.072C175.578 125.067 177.253 123.382 177.248 121.462L177.212 108.262L196.379 96.2094L196.366 91.4095L177.182 97.462L177.146 84.2621L181.936 80.6489L181.927 77.0489L173.533 79.4719L165.127 77.095L165.137 80.6949L169.946 84.2818L169.983 97.4817L150.766 91.5343Z" fill="#97CA2B"/>
<circle cx="166.28" cy="62.6758" r="7.5" transform="rotate(160.77 166.28 62.6758)" fill="#97CA2B"/>
<circle cx="152.403" cy="42.6274" r="7" transform="rotate(160.77 152.403 42.6274)" fill="#97CA2B"/>
<path d="M124.55 29.573C123.368 26.1835 125.157 22.4772 128.547 21.2949C131.936 20.1126 135.643 21.9019 136.825 25.2914C138.007 28.681 136.218 32.3872 132.828 33.5696C129.439 34.7519 125.733 32.9626 124.55 29.573Z" fill="#97CA2B"/>
<circle cx="104.996" cy="22.0959" r="6" transform="rotate(160.77 104.996 22.0959)" fill="#97CA2B"/>
<circle cx="74.0569" cy="26.0039" r="5.5" transform="rotate(160.77 74.0569 26.0039)" fill="#97CA2B"/>
<circle cx="43.3373" cy="45.7217" r="5" transform="rotate(160.77 43.3373 45.7217)" fill="#97CA2B"/>
<circle cx="25.4409" cy="77.9121" r="4.5" transform="rotate(160.77 25.4409 77.9121)" fill="#97CA2B"/>
<circle cx="24.0132" cy="111.771" r="4" transform="rotate(160.77 24.0132 111.771)" fill="#97CA2B"/>
<circle cx="36.1334" cy="141.964" r="3.5" transform="rotate(160.77 36.1334 141.964)" fill="#97CA2B"/>
<circle cx="54.1168" cy="161.638" r="3" transform="rotate(160.77 54.1168 161.638)" fill="#97CA2B"/>
<circle cx="76.404" cy="172.399" r="2.5" transform="rotate(160.77 76.404 172.399)" fill="#97CA2B"/>
</svg>
