<svg width="115" height="35" fill="none" xmlns="http://www.w3.org/2000/svg"><path d="M15.822 15.908H5.697v6.856H17.58V27H.424V1.406h17.12v4.272H5.698v6.1h10.125v4.13zm21.639 1.758c0 2.93-.668 5.28-2.004 7.049-1.324 1.758-3.117 2.637-5.379 2.637-1.922 0-3.474-.668-4.658-2.004v8.965h-5.08V7.98h4.71l.177 1.864c1.23-1.477 2.835-2.215 4.816-2.215 2.344 0 4.166.867 5.467 2.601 1.3 1.735 1.95 4.125 1.95 7.172v.264zm-5.08-.37c0-1.769-.316-3.134-.95-4.095-.62-.96-1.529-1.441-2.724-1.441-1.594 0-2.69.61-3.287 1.828v7.787c.621 1.254 1.728 1.88 3.322 1.88 2.426 0 3.639-1.985 3.639-5.958zm18.545 4.448c0-.621-.31-1.107-.932-1.459-.61-.363-1.594-.685-2.953-.967-4.523-.949-6.785-2.87-6.785-5.765 0-1.688.697-3.094 2.092-4.219 1.406-1.137 3.24-1.705 5.502-1.705 2.414 0 4.341.568 5.783 1.705 1.453 1.137 2.18 2.613 2.18 4.43h-5.08c0-.727-.235-1.324-.704-1.793-.469-.48-1.2-.721-2.197-.721-.855 0-1.517.193-1.986.58-.469.387-.703.879-.703 1.477 0 .562.263 1.02.79 1.37.54.34 1.442.64 2.708.897 1.265.246 2.332.528 3.199.844 2.683.984 4.025 2.69 4.025 5.115 0 1.735-.744 3.14-2.232 4.219-1.489 1.066-3.41 1.6-5.766 1.6-1.594 0-3.011-.282-4.254-.844-1.23-.574-2.197-1.354-2.9-2.338-.703-.996-1.055-2.068-1.055-3.217h4.817c.047.902.38 1.594 1.002 2.074.62.48 1.453.721 2.496.721.972 0 1.705-.182 2.197-.545.504-.375.756-.861.756-1.459zM64.514 27h-5.098V7.98h5.098V27zM59.117 3.059c0-.762.252-1.39.756-1.881.516-.492 1.213-.739 2.092-.739.867 0 1.558.247 2.074.739.516.492.773 1.119.773 1.88 0 .774-.263 1.407-.79 1.899-.516.492-1.202.738-2.057.738-.856 0-1.547-.246-2.074-.738-.516-.492-.774-1.125-.774-1.898z" fill="#000"/><path d="M74.076 27H68.98V0h5.097v27zm3.41-9.686c0-1.886.364-3.568 1.09-5.044.727-1.477 1.77-2.62 3.13-3.428 1.37-.809 2.958-1.213 4.763-1.213 2.566 0 4.658.785 6.275 2.355 1.629 1.57 2.537 3.704 2.725 6.399l.035 1.3c0 2.919-.815 5.262-2.444 7.032-1.628 1.758-3.814 2.637-6.556 2.637s-4.934-.88-6.574-2.637c-1.63-1.758-2.444-4.149-2.444-7.172v-.229zm5.08.37c0 1.804.34 3.187 1.02 4.148.68.95 1.652 1.424 2.918 1.424 1.23 0 2.191-.469 2.883-1.406.691-.95 1.037-2.461 1.037-4.536 0-1.77-.346-3.14-1.037-4.113-.692-.973-1.664-1.459-2.918-1.459-1.242 0-2.203.486-2.883 1.46-.68.96-1.02 2.454-1.02 4.482zM103.31 7.98l.158 2.198c1.359-1.7 3.181-2.55 5.467-2.55 2.015 0 3.515.593 4.5 1.776.984 1.184 1.488 2.953 1.511 5.309V27h-5.08V14.836c0-1.078-.234-1.857-.703-2.338-.469-.492-1.248-.738-2.338-.738-1.429 0-2.502.61-3.217 1.828V27h-5.08V7.98h4.782z" fill="#97CA2B"/></svg>