<svg width="20" height="20" viewBox="0 0 20 20" fill="none" xmlns="http://www.w3.org/2000/svg">
<rect width="20" height="20" fill="white"/>
<path d="M7.49972 9.5836C5.20228 9.5836 3.33313 7.7146 3.33313 5.41717C3.33313 3.11972 5.20228 1.25058 7.49972 1.25058C9.79716 1.25058 11.6663 3.11972 11.6663 5.41717C11.6663 7.7146 9.79716 9.5836 7.49972 9.5836ZM7.49972 2.50054C5.89149 2.50054 4.58309 3.80878 4.58309 5.41717C4.58309 7.02539 5.89149 8.33364 7.49972 8.33364C9.10794 8.33364 10.4163 7.02539 10.4163 5.41717C10.4163 3.80878 9.10794 2.50054 7.49972 2.50054Z" fill="black"/>
<path d="M14.3745 18.75H0.62498C0.27999 18.75 0 18.47 0 18.125V15.2084C0 13.026 1.77576 11.2503 3.95816 11.2503H11.0414C13.2238 11.2503 14.9995 13.026 14.9995 15.2084V18.125C14.9995 18.47 14.7195 18.75 14.3745 18.75ZM1.24996 17.5001H13.7496V15.2084C13.7496 13.7153 12.5345 12.5003 11.0414 12.5003H3.95816C2.46497 12.5003 1.24996 13.7153 1.24996 15.2084V17.5001Z" fill="black"/>
<path d="M19.3744 9.79202H12.2913C11.9463 9.79202 11.6663 9.51203 11.6663 9.16703C11.6663 8.82204 11.9463 8.54205 12.2913 8.54205H19.3744C19.7194 8.54205 19.9994 8.82204 19.9994 9.16703C19.9994 9.51203 19.7194 9.79202 19.3744 9.79202Z" fill="black"/>
<path d="M16.0412 13.1252C15.8811 13.1252 15.7212 13.0644 15.5995 12.942C15.3554 12.6976 15.3554 12.3019 15.5995 12.0577L18.4911 9.16614L15.5995 6.27454C15.3554 6.0304 15.3554 5.6346 15.5995 5.39046C15.8436 5.14634 16.2395 5.14634 16.4837 5.39046L19.8169 8.72365C20.061 8.96779 20.061 9.36374 19.8169 9.60787L16.4837 12.941C16.3612 13.0644 16.2011 13.1252 16.0412 13.1252Z" fill="black"/>
</svg>
